<?xml version="1.0" encoding="iso-8859-1"?>
<!-- Generator: Adobe Illustrator 19.0.0, SVG Export Plug-In . SVG Version: 6.00 Build 0)  -->
<svg version="1.1" id="Capa_1" xmlns="http://www.w3.org/2000/svg" xmlns:xlink="http://www.w3.org/1999/xlink" x="0px" y="0px"
	 viewBox="0 0 512 512" style="enable-background:new 0 0 512 512;" xml:space="preserve">
<g>
	<path style="fill:#1138F7;" d="M255.15,511.15H63.787C28.619,511.15,0,482.53,0,447.362V64.638C0,29.47,28.619,0.85,63.787,0.85
		H255.15c11.737,0,21.262,9.526,21.262,21.262s-9.526,21.262-21.262,21.262H63.787c-11.716,0-21.262,9.547-21.262,21.262v382.724
		c0,11.737,9.547,21.262,21.262,21.262H255.15c11.737,0,21.262,9.504,21.262,21.262C276.412,501.645,266.886,511.15,255.15,511.15z"
		/>
	<path style="fill:#1138F7;" d="M446.512,277.262h-255.15c-11.737,0-21.262-9.504-21.262-21.262
		c0-11.737,9.526-21.262,21.262-21.262h255.15c11.758,0,21.262,9.526,21.262,21.262C467.774,267.758,458.27,277.262,446.512,277.262
		z"/>
	<path style="fill:#1138F7;" d="M361.462,404.837c-5.486,0-10.971-2.126-15.139-6.336c-8.25-8.356-8.165-21.815,0.213-30.065
		L460.46,256L346.536,143.564c-8.377-8.25-8.441-21.709-0.213-30.086c8.229-8.377,21.73-8.441,30.065-0.191l129.276,127.575
		c4.04,3.997,6.336,9.441,6.336,15.139s-2.275,11.12-6.336,15.139L376.388,398.714C372.263,402.796,366.862,404.837,361.462,404.837
		z"/>
</g>
<g>
</g>
<g>
</g>
<g>
</g>
<g>
</g>
<g>
</g>
<g>
</g>
<g>
</g>
<g>
</g>
<g>
</g>
<g>
</g>
<g>
</g>
<g>
</g>
<g>
</g>
<g>
</g>
<g>
</g>
</svg>
